<mxfile host="app.diagrams.net" modified="2023-12-25T11:03:55.579Z" agent="Mozilla/5.0 (Windows NT 10.0; Win64; x64; rv:121.0) Gecko/20100101 Firefox/121.0" version="21.6.6" etag="L0v9EETC5PZg5dvo5mkh" type="github">
  <diagram name="Page-1" id="st_fm3_1bokqgREWJhfg">
    <mxGraphModel>
      <root>
        <mxCell id="0" />
        <mxCell id="1" parent="0" />
      </root>
    </mxGraphModel>
  </diagram>
</mxfile>
